<?xml version="1.0" encoding="UTF-8"?>
<!-- Generator: Adobe Illustrator 19.0.0, SVG Export Plug-In . SVG Version: 6.00 Build 0)  -->
<svg enable-background="new 0 0 512 512" version="1.1" viewBox="0 0 512 512" xml:space="preserve" xmlns="http://www.w3.org/2000/svg">

































<path d="m76.775 0h360.44c41.981 0 75.778 33.797 75.778 75.778v360.94c0 41.981-33.797 75.778-75.778 75.778h-360.44c-41.981 0-75.778-33.797-75.778-75.778v-360.94c0-41.981 33.797-75.778 75.778-75.778z" fill="#4c529b"/><path d="m176.96 30.519-176.96 157.42 0.86168 222.41 0.13637 26.361c0.21718 41.98 33.796 75.777 75.777 75.777l275.47 6e-3 40.992-38.478-13.853-103.83 28.032-64.801-71.034-31.537 7.7079-10.234-12.873-50.165 11.274-18.059-14.042-26.623-24.614-7.1179 24.003-53.925 11.555-59.076-82.394-7.5391z" fill-opacity=".5"/><g fill="#fff"><g transform="matrix(5.8853 0 0 5.8853 162.83 -.084414)"><g fill="#fff">
	<path d="m16 9c-1.7 0-3 1.3-3 3v1h6v-1c0-1.7-1.3-3-3-3z"/>
	<path d="m29.6 5.2c-0.3-0.2-0.6-0.3-0.9-0.1-4.3 1.4-8.7 0.3-12-2.8-0.4-0.4-1-0.4-1.4 0-3.3 3.1-7.7 4.2-12 2.8-0.3-0.2-0.6-0.1-0.9 0.1-0.2 0.2-0.4 0.5-0.4 0.8 0 15.7 6.9 20.9 13.6 23.9 0.1 0.1 0.3 0.1 0.4 0.1s0.3 0 0.4-0.1c6.7-3 13.6-8.2 13.6-23.9 0-0.3-0.2-0.6-0.4-0.8zm-7.6 14.8c0 1.7-1.3 3-3 3h-6c-1.7 0-3-1.3-3-3v-4c0-0.9 0.4-1.7 1-2.2v-1.8c0-2.8 2.2-5 5-5s5 2.2 5 5v1.8c0.6 0.5 1 1.3 1 2.2z"/>
	<path d="m16 16c-0.6 0-1 0.4-1 1v2c0 0.6 0.4 1 1 1s1-0.4 1-1v-2c0-0.6-0.4-1-1-1z"/>
</g></g><g stroke-width=".72097"><circle cx="344.09" cy="236.88" r="26.734"/><path d="m198.2 472.78 10.337-77.477-3.3489-25.095 1.0194-0.92284-19.264-17.569-0.16222-0.1615c-12.613-12.632-14.334-32.097-5.1607-46.582l-0.51981-0.76639 5.6538-5.7339 15.07-15.07c1.0649-1.0663 2.1542-1.8226 3.2544-2.7296-8.3531-4.5594-17.785-6.8211-27.469-6.8211h-15.427c-15.215 0-29.815 5.2076-40.57 15.962l-15.07 14.319h0.031c-10.835 11.535-10.835 29.047 0 39.901l28.032 25.878-13.853 103.95c-0.27613 2.0771 1.346 4.0237 3.439 4.0237h21.17c1.7361 0 3.1953-1.2069 3.439-2.9264l11.469-83.196c0.19322-1.4109 0.66618-2.7072 1.3475-3.8745 3.6164-6.1664 12.944-6.1556 16.544 9e-3 0.69862 1.1672 1.1687 2.4859 1.3619 3.8983l11.471 83.162c0.24369 1.721 1.7022 2.9278 3.439 2.9278h4.1174c-0.45133-1.4419-0.58038-3.3712-0.35111-5.1059zm-58.871-134.64-8.8571-8.873c-2.3684-2.3684-2.3684-6.1974 0-8.5658l11.207-11.207c0.5847-0.58615 1.5746-0.0988 1.4614 0.72818z"/><circle cx="169.9" cy="236.88" r="26.734"/><path d="m169.61 195.32c0.20692 0.0296 0.41095 0.0425 0.61426 0.0425 2.1925 0 4.1059-1.6193 4.413-3.8528 1.9913-14.478 14.53-25.395 29.17-25.395 2.4628 0 4.4614-1.9978 4.4614-4.4614s-1.9978-4.4614-4.4614-4.4614c-19.073 0-35.413 14.23-38.009 33.1-0.33669 2.4412 1.3713 4.6928 3.8118 5.028z"/><path d="m308.29 166.11c14.672 0 27.215 10.946 29.177 25.458 0.3028 2.24 2.2177 3.8637 4.4145 3.8637 0.1997 0 0.40157-0.013 0.60417-0.0411 2.4419-0.33092 4.1542-2.5767 3.8247-5.0187-2.5587-18.917-18.903-33.184-38.02-33.184-2.4643 0-4.4614 1.9978-4.4614 4.4614s1.9964 4.4606 4.4606 4.4606z"/><path d="m300.54 432.15-8.2558-61.903 8.2731-7.542 19.757-18.023c10.837-10.851 10.837-28.437 0-39.273l0.0324-0.049-15.07-15.07c-1.5083-1.5083-3.098-2.7505-4.7526-4.0302-10.123-8.126-22.743-12.402-35.818-12.402h-15.429c-13.073 0-25.695 4.2761-35.818 12.387-1.6532 1.2956-3.2444 2.6308-4.7526 4.1391l-15.07 15.023 0.0339 0.0267c-10.835 10.835-10.835 28.409 0 39.262l19.757 18.015 8.2717 7.5399-8.2558 61.902-5.5947 41.965c-0.26027 1.9618 1.1672 3.6481 3.0807 3.8435 0.11392 0.0151 0.24369-0.0692 0.35616-0.0692h21.17c1.7346 0 3.1953-1.1997 3.4376-2.9178l11.471-83.192c0.19466-1.4109 0.66473-2.7209 1.346-3.8889 3.6178-6.1477 12.945-6.139 16.546 9e-3 0.69717 1.1672 1.1687 2.5032 1.3634 3.917l11.469 83.151c0.24225 1.7195 1.7022 2.9206 3.439 2.9206h21.17c0.11103 0 0.24224 0.0829 0.35616 0.0678 1.9134-0.19682 3.3431-1.9221 3.0821-3.8853zm-74.117-93.99-8.8571-8.8744c-2.3684-2.3684-2.3684-6.196 0-8.5644l11.21-11.209c0.5847-0.58471 1.5732-0.0988 1.46 0.71231zm57.326-27.935c-0.11103-0.81109 0.87742-1.297 1.4614-0.71232l11.209 11.209c2.3684 2.3684 2.3684 6.196 0 8.5644l-8.8571 8.8744z"/><path d="m407.41 305.39 0.031-0.049-15.067-14.876c-10.772-10.754-25.356-16.611-40.572-16.611h-15.426c-9.6934 0-19.134 2.2653-27.491 6.8384 1.0995 0.93077 2.1953 1.8183 3.2754 2.8983l20.757 20.663-0.55226 0.76639c9.1729 14.489 7.4519 33.927-5.1636 46.56l-0.3266 0.30065-19.101 17.415 1.0238 0.93438-3.3475 25.106 10.334 77.418c0.23071 1.7534 0.10166 3.6921-0.35616 5.134h4.1247c1.7346 0 3.1953-1.2069 3.439-2.9264l11.469-83.196c0.19466-1.4109 0.66329-2.7072 1.346-3.8745 3.6178-6.1664 12.945-6.1556 16.546 9e-3 0.68276 1.1672 1.1507 2.4859 1.3634 3.8983l11.468 83.162c0.24369 1.721 1.7022 2.9278 3.4397 2.9278h21.168c2.0922 0 3.7144-1.7894 3.439-3.868l-13.853-103.83 28.032-25.549c10.835-10.852 10.835-28.417 0-39.252zm-23.896 23.878-8.8556 8.873-3.8118-27.918c-0.11391-0.82623 0.87598-1.3136 1.46-0.72818l11.207 11.207c2.3713 2.3691 2.3713 6.1974 0 8.5658z"/><path d="m257 209.69h-1e-3c-14.765 0-26.732 11.91-26.732 26.675s11.968 26.677 26.732 26.677h1e-3c14.765 0 26.734-11.912 26.734-26.677s-11.97-26.675-26.734-26.675z"/></g></g></svg>
